<svg width="147" height="135" viewBox="0 0 147 135" fill="none" xmlns="http://www.w3.org/2000/svg">
<path d="M0 134V1H21.4523V119.147H55V134H0Z" fill="#4A79D4"/>
<path d="M73 135V0H118.467C124.653 0 129.834 0.913703 134.009 2.74111C138.185 4.56852 141.355 7.38578 143.52 11.1929C145.84 15 147 19.9492 147 26.0406V105.99C147 113.452 145.685 119.315 143.056 123.579C140.427 127.843 136.716 130.812 131.922 132.487C127.282 134.162 121.792 135 115.451 135H73ZM95.9655 123.35H111.972C115.838 123.35 118.931 122.284 121.251 120.152C123.571 117.868 124.73 113.68 124.73 107.589V28.5533C124.73 22.4619 123.571 18.2741 121.251 15.9898C118.931 13.7056 115.838 12.5635 111.972 12.5635H95.9655V123.35Z" fill="#4A79D4"/>
</svg>
