<svg width="56" height="24" viewBox="0 0 56 24" fill="none" xmlns="http://www.w3.org/2000/svg">
<path d="M20.3878 14C19.8613 14 19.3658 13.9157 18.9013 13.7471C18.4368 13.5939 18.0574 13.2797 17.7632 12.8046C17.4845 12.3142 17.3451 11.5862 17.3451 10.6207V3.03448C17.3451 2.2069 17.4999 1.57854 17.8096 1.14943C18.1193 0.704981 18.5529 0.406131 19.1103 0.252874C19.6678 0.0842915 20.3104 0 21.0382 0C21.766 0 22.4086 0.0842915 22.966 0.252874C23.5235 0.421456 23.957 0.727969 24.2667 1.17241C24.5919 1.60153 24.7545 2.22222 24.7545 3.03448V4.87356H22.5944V2.94253C22.5944 2.48276 22.5247 2.13793 22.3853 1.90805C22.2615 1.67816 22.0834 1.5249 21.8511 1.44828C21.6343 1.37165 21.3711 1.33333 21.0614 1.33333C20.7827 1.33333 20.5272 1.37165 20.2949 1.44828C20.0626 1.5249 19.8768 1.67816 19.7375 1.90805C19.6136 2.13793 19.5516 2.48276 19.5516 2.94253V11.1034C19.5516 11.5632 19.6136 11.908 19.7375 12.1379C19.8768 12.3678 20.0626 12.5211 20.2949 12.5977C20.5272 12.6743 20.7827 12.7126 21.0614 12.7126C21.5105 12.7126 21.8743 12.5824 22.1531 12.3218C22.4473 12.046 22.5944 11.6398 22.5944 11.1034V8.34483H21.224V7.08046H24.7545V13.7471H23.0821L22.966 12.5977C22.935 12.659 22.8963 12.728 22.8499 12.8046C22.8034 12.8659 22.7647 12.9195 22.7337 12.9655C22.5479 13.2414 22.2692 13.4866 21.8976 13.7011C21.5414 13.9004 21.0382 14 20.3878 14Z" fill="#3968C4"/>
<path d="M0 0.16092V13.7471H5.5977V12.2299H2.18333V0.16092H0Z" fill="#3968C4"/>
<path d="M8.3118 0.16092V13.7471H14.4902V12.2299H10.6345V7.56322H13.8166V5.83908H10.6345V1.72414H14.4902V0.16092H8.3118Z" fill="#3968C4"/>
<path d="M28.2244 0.16092V13.7471H34.4027V12.2299H30.5471V7.56322H33.7292V5.83908H30.5471V1.72414H34.4027V0.16092H28.2244Z" fill="#3968C4"/>
<path d="M37.4435 13.7471V0.16092H39.3713L42.7857 9.31035V0.16092H44.76V13.7471H42.8089L39.4178 5.08046V13.7471H37.4435Z" fill="#3968C4"/>
<path fill-rule="evenodd" clip-rule="evenodd" d="M48.5906 0.16092V13.7471H52.8411C53.476 13.7471 54.0257 13.6628 54.4902 13.4943C54.9703 13.3257 55.3419 13.0268 55.6051 12.5977C55.8684 12.1686 56 11.5785 56 10.8276V2.78161C56 2.16858 55.8839 1.6705 55.6516 1.28736C55.4348 0.904215 55.1174 0.62069 54.6993 0.436781C54.2812 0.252874 53.7625 0.16092 53.1431 0.16092H48.5906ZM52.4927 12.5747H50.8901V1.42529H52.4927C52.8798 1.42529 53.1895 1.54023 53.4218 1.77012C53.6541 2 53.7702 2.42146 53.7702 3.03448V10.9885C53.7702 11.6015 53.6541 12.023 53.4218 12.2529C53.1895 12.4674 52.8798 12.5747 52.4927 12.5747Z" fill="#3968C4"/>
<path fill-rule="evenodd" clip-rule="evenodd" d="M11.1021 23.6245C11.4437 23.8748 11.873 24 12.3901 24C12.8829 24 13.3 23.8748 13.6415 23.6245C13.983 23.3741 14.2416 23.0259 14.4173 22.5796C14.5978 22.1279 14.688 21.6 14.688 20.9959C14.688 20.3918 14.5978 19.8667 14.4173 19.4204C14.2416 18.9687 13.983 18.6204 13.6415 18.3755C13.3049 18.1252 12.8902 18 12.3975 18C11.8803 18 11.4485 18.1252 11.1021 18.3755C10.7606 18.6204 10.5045 18.966 10.3337 19.4122C10.1679 19.8585 10.0849 20.3837 10.0849 20.9878C10.0849 21.5918 10.1679 22.1197 10.3337 22.5714C10.5045 23.0231 10.7606 23.3741 11.1021 23.6245ZM13.078 23.3878C12.8926 23.502 12.6633 23.5592 12.3901 23.5592C12.1218 23.5592 11.8925 23.502 11.7022 23.3878C11.512 23.2735 11.3558 23.1075 11.2339 22.8898C11.1168 22.6667 11.0314 22.3973 10.9777 22.0816C10.9241 21.7605 10.8972 21.3986 10.8972 20.9959C10.8972 20.5932 10.9241 20.234 10.9777 19.9184C11.0314 19.6027 11.1168 19.3361 11.2339 19.1184C11.3558 18.8952 11.512 18.7265 11.7022 18.6122C11.8925 18.498 12.1242 18.4408 12.3975 18.4408C12.6707 18.4408 12.9 18.498 13.0854 18.6122C13.2756 18.7265 13.4269 18.8952 13.5391 19.1184C13.6562 19.3361 13.7416 19.6027 13.7952 19.9184C13.8489 20.234 13.8757 20.5932 13.8757 20.9959C13.8757 21.3986 13.8489 21.7605 13.7952 22.0816C13.7416 22.3973 13.6562 22.6667 13.5391 22.8898C13.422 23.1075 13.2683 23.2735 13.078 23.3878Z" fill="#3968C4"/>
<path d="M1.45136 23.5755V23.9184H3.7273V23.5755H3.55898C3.45165 23.5755 3.35163 23.5619 3.25894 23.5347C3.16624 23.5075 3.09306 23.4531 3.03939 23.3714C2.98573 23.2844 2.95889 23.1565 2.95889 22.9878V18.498H3.66875C3.81511 18.498 3.92976 18.5306 4.0127 18.5959C4.09564 18.6558 4.15663 18.7374 4.19566 18.8408C4.23957 18.9388 4.2664 19.0476 4.27616 19.1673L4.31275 19.5184H4.69329L4.6567 18.0898H0.536591L0.5 19.5184H0.880543L0.917134 19.1673C0.93177 19.0476 0.958603 18.9388 0.997633 18.8408C1.03666 18.7374 1.09765 18.6558 1.18059 18.5959C1.26353 18.5306 1.37574 18.498 1.51722 18.498H2.21976V23.0286C2.21976 23.1864 2.19049 23.3061 2.13194 23.3878C2.07828 23.4639 2.0051 23.5156 1.9124 23.5429C1.82458 23.5646 1.72701 23.5755 1.61967 23.5755H1.45136Z" fill="#3968C4"/>
<path d="M20.6205 18.8653C20.5912 18.751 20.5522 18.6639 20.5034 18.6041C20.4595 18.5388 20.4059 18.4952 20.3424 18.4735C20.279 18.4463 20.1985 18.4327 20.1009 18.4327H20.0058V18.0898H22.0183V18.4327H21.85C21.7036 18.4327 21.5938 18.4653 21.5206 18.5306C21.4475 18.5905 21.4109 18.6884 21.4109 18.8245C21.4109 18.8517 21.4133 18.8816 21.4182 18.9143C21.4231 18.9469 21.4304 18.9796 21.4401 19.0122C21.4499 19.0449 21.4597 19.083 21.4694 19.1265L22.1427 21.7388C22.1866 21.902 22.2256 22.0653 22.2598 22.2286C22.2988 22.3864 22.3354 22.5415 22.3696 22.6939C22.4037 22.8463 22.433 22.9878 22.4574 23.1184C22.4964 22.9061 22.5403 22.6748 22.5891 22.4245C22.6379 22.1687 22.694 21.9102 22.7574 21.649L23.6283 18.1469H24.1552L25.0699 21.6816C25.1187 21.8612 25.1626 22.0381 25.2017 22.2122C25.2407 22.381 25.2749 22.5442 25.3041 22.702C25.3383 22.8544 25.3651 22.9932 25.3846 23.1184C25.409 22.9878 25.4359 22.8544 25.4651 22.7184C25.4944 22.5769 25.5261 22.4299 25.5603 22.2776C25.5944 22.1197 25.6334 21.9537 25.6773 21.7796L26.3213 19.2571L26.3726 19.0286C26.3921 18.9415 26.4018 18.8762 26.4018 18.8327C26.4018 18.6912 26.3604 18.5905 26.2774 18.5306C26.1994 18.4653 26.0798 18.4327 25.9188 18.4327H25.7505V18.0898H27.5362V18.4327H27.3971C27.3044 18.4327 27.2239 18.449 27.1556 18.4816C27.0922 18.5088 27.0361 18.5687 26.9873 18.6612C26.9385 18.7537 26.8897 18.8898 26.8409 19.0694L25.6042 23.9184H24.9455L23.7527 19.3469L22.633 23.9184H21.9597L20.6205 18.8653Z" fill="#3968C4"/>
<path d="M32.8555 23.5755V23.9184H36.778L36.8293 22.4898H36.4487L36.3975 22.8408C36.3829 22.9605 36.3487 23.0721 36.295 23.1755C36.2463 23.2735 36.1731 23.3551 36.0755 23.4204C35.9828 23.4803 35.8584 23.5102 35.7023 23.5102H34.2899V21.0694H36.0535V20.6694H34.2899V18.498H35.5193C35.6657 18.498 35.7828 18.5306 35.8706 18.5959C35.9633 18.6558 36.0316 18.7374 36.0755 18.8408C36.1243 18.9388 36.1536 19.0476 36.1633 19.1673L36.1999 19.5184H36.5805L36.5439 18.0898H32.8555V18.4327H32.9507C33.0629 18.4327 33.1629 18.4463 33.2507 18.4735C33.3434 18.5007 33.4166 18.5551 33.4702 18.6367C33.5239 18.7184 33.5507 18.8463 33.5507 19.0204V23.0286C33.5507 23.1864 33.5215 23.3061 33.4629 23.3878C33.4093 23.4639 33.3361 23.5156 33.2434 23.5429C33.1556 23.5646 33.058 23.5755 32.9507 23.5755H32.8555Z" fill="#3968C4"/>
<path fill-rule="evenodd" clip-rule="evenodd" d="M42.3914 23.9184V23.5755H42.4865C42.5939 23.5755 42.6914 23.5646 42.7793 23.5429C42.872 23.5156 42.9451 23.4639 42.9988 23.3878C43.0573 23.3061 43.0866 23.1864 43.0866 23.0286V18.9878C43.0866 18.8245 43.0573 18.7048 42.9988 18.6286C42.9451 18.5469 42.872 18.4952 42.7793 18.4735C42.6914 18.4463 42.5939 18.4327 42.4865 18.4327H42.3914V18.0898H44.36C44.7844 18.0898 45.1357 18.1497 45.4138 18.2694C45.6919 18.3837 45.8992 18.5578 46.0358 18.7918C46.1724 19.0204 46.2407 19.3116 46.2407 19.6653C46.2407 19.9537 46.1871 20.1986 46.0797 20.4C45.9724 20.5959 45.8358 20.7537 45.6699 20.8735C45.5089 20.9932 45.3406 21.0857 45.165 21.151L46.1675 22.9224C46.231 23.0313 46.292 23.1265 46.3505 23.2082C46.409 23.2898 46.4676 23.3578 46.5261 23.4122C46.5896 23.4667 46.653 23.5075 46.7164 23.5347C46.7847 23.5619 46.8579 23.5755 46.936 23.5755H46.9579V23.9184H46.8555C46.6262 23.9184 46.4359 23.9102 46.2846 23.8939C46.1383 23.8721 46.0163 23.8367 45.9187 23.7878C45.8212 23.7333 45.7333 23.6571 45.6553 23.5592C45.5821 23.4612 45.504 23.3361 45.4211 23.1837L44.4331 21.3469H43.8257V23.0286C43.8257 23.1864 43.8526 23.3061 43.9062 23.3878C43.9648 23.4639 44.038 23.5156 44.1258 23.5429C44.2185 23.5646 44.3185 23.5755 44.4258 23.5755H44.521V23.9184H42.3914ZM44.338 20.9633C44.6259 20.9633 44.8503 20.917 45.0113 20.8245C45.1723 20.7265 45.2869 20.585 45.3552 20.4C45.4235 20.2095 45.4577 19.9728 45.4577 19.6898C45.4577 19.3959 45.4211 19.1619 45.3479 18.9878C45.2747 18.8082 45.1552 18.6803 44.9893 18.6041C44.8235 18.5224 44.6015 18.4816 44.3234 18.4816H43.8257V20.9633H44.338Z" fill="#3968C4"/>
<path d="M53.0631 23.9184C53.2485 23.9728 53.4607 24 53.6997 24C54.0656 24 54.3828 23.9347 54.6511 23.8041C54.9243 23.6735 55.1341 23.4884 55.2805 23.249C55.4268 23.0041 55.5 22.7075 55.5 22.3592C55.5 22.0762 55.4463 21.834 55.339 21.6327C55.2317 21.4313 55.0755 21.2544 54.8706 21.102C54.6706 20.9442 54.4267 20.8 54.1388 20.6694C53.8559 20.5388 53.6314 20.4163 53.4656 20.302C53.2997 20.1823 53.1801 20.049 53.107 19.902C53.0387 19.7497 53.0045 19.5646 53.0045 19.3469C53.0045 19.1565 53.0387 18.9932 53.107 18.8571C53.1801 18.7156 53.2826 18.6068 53.4143 18.5306C53.5509 18.4544 53.7119 18.4163 53.8973 18.4163C54.1022 18.4163 54.2632 18.468 54.3803 18.5714C54.5023 18.6748 54.5877 18.8054 54.6365 18.9633C54.6901 19.1211 54.717 19.2844 54.717 19.4531C54.8926 19.4531 55.0316 19.4095 55.1341 19.3224C55.2414 19.2299 55.2951 19.0966 55.2951 18.9224C55.2951 18.7646 55.2414 18.6177 55.1341 18.4816C55.0268 18.3401 54.8706 18.2259 54.6657 18.1388C54.4657 18.0517 54.2193 18.0082 53.9266 18.0082C53.6192 18.0082 53.3436 18.068 53.0997 18.1878C52.8606 18.302 52.6703 18.4707 52.5288 18.6939C52.3922 18.9116 52.3239 19.1755 52.3239 19.4857C52.3239 19.7088 52.3508 19.9102 52.4044 20.0898C52.463 20.2694 52.5459 20.4299 52.6532 20.5714C52.7655 20.7129 52.9069 20.8435 53.0777 20.9633C53.2485 21.083 53.446 21.1946 53.6705 21.298C53.9583 21.4286 54.1827 21.5537 54.3437 21.6735C54.5096 21.7932 54.6267 21.9238 54.695 22.0653C54.7682 22.2014 54.8048 22.3701 54.8048 22.5714C54.8048 22.9034 54.7121 23.1592 54.5267 23.3388C54.3413 23.5129 54.0852 23.6 53.7583 23.6C53.529 23.6 53.3436 23.5401 53.2021 23.4204C53.0606 23.2952 52.9557 23.1347 52.8874 22.9388C52.8191 22.7374 52.7801 22.5252 52.7703 22.302C52.6581 22.302 52.563 22.3265 52.4849 22.3755C52.4069 22.419 52.3459 22.4816 52.302 22.5633C52.2629 22.6449 52.2434 22.7401 52.2434 22.849C52.2434 23.0177 52.2727 23.1728 52.3312 23.3143C52.3947 23.4558 52.4874 23.5782 52.6093 23.6816C52.7313 23.785 52.8825 23.8639 53.0631 23.9184Z" fill="#3968C4"/>
</svg>
